<?xml version="1.0" encoding="UTF-8" standalone="no"?>
<svg viewBox="0 0 1071 445" version="1.1" xmlns="http://www.w3.org/2000/svg" xmlns:xlink="http://www.w3.org/1999/xlink" xmlns:sketch="http://www.bohemiancoding.com/sketch/ns">
    <title>Untitled 3</title>
    <description>Created with Sketch (http://www.bohemiancoding.com/sketch)</description>
    <defs></defs>
    <g id="Page-1" stroke="none" stroke-width="1" fill="none" fill-rule="evenodd" sketch:type="MSPage">
        <g id="logo-copy" sketch:type="MSLayerGroup" fill="#F7F7F7">
            <path d="M390.156734,79.8997038 C401.29499,76.0648701 394.495681,68.4158301 394.495681,66.2086911 C394.495681,64.0015521 389.269052,58.8700008 388.16461,47.3036173 C386.776785,39.0807587 386.81995,24.2580482 386.81995,24.2580482 C386.81995,24.2580482 390.985491,24.3341961 396.319086,23.043483 C398.396778,22.5406881 400.80965,22.2126555 402.86204,20.8048226 C410.183074,15.7829719 408.27634,11.7559278 405.693991,8.60742612 C403.111642,5.45892451 399.119887,4 399.119887,4 C399.119887,4 397.702873,4.53137162 396.041997,5.8554606 C394.003404,7.4806728 391.354049,10.0569827 387.525591,11.332127 C380.578022,13.6461538 371.023707,9.62754831 358.864523,14.4618764 C346.705339,19.2962047 337.130381,25.7469763 342.554064,33.1147326 C347.691549,39.894606 354.178386,36.8942472 355.796108,35.8469344 C358.864523,33.1147326 360.360259,30.9938539 360.360259,30.9938539 C360.360259,30.9938539 364.802422,25.7526025 368.431975,28.0666287 C372.061528,30.3806555 375.418959,48.1381029 376.273332,52.2659458 C377.186504,56.6778744 377.107991,68.1973665 378.340988,74.6040703 C379.307492,81.4008208 384.023656,82.062775 390.156734,79.8997038 Z" id="Path-1" sketch:type="MSShapeGroup"></path>
            <path d="M433.089049,2.23965553 C436.133165,-1.08224148 442.584037,-0.767436299 447.662861,3.57687177 C452.741684,7.92118008 454.610026,28.9228989 454.610026,28.9228989 L472.205522,28.8496011 C472.205522,28.8496011 472.475633,18.5738039 474.781385,10.4067296 C477.087137,2.23965542 483.016482,0.00407019445 488.627114,2.91813067 C494.237746,5.83219071 492.926916,10.6853555 492.724099,12.1574214 C492.668635,15.1336574 488.381304,16.1084581 488.381304,16.1084581 C488.381304,16.1084581 484.447183,26.0823277 483.839086,31.7226003 C483.117505,38.4154773 484.067015,51.8012312 484.067015,51.8012312 C484.067015,51.8012312 486.850366,51.6010751 490.715095,58.2241919 C494.579824,64.8473088 489.17855,71.27967 489.17855,71.27967 C489.17855,71.27967 484.275439,76.3766943 478.240481,72.6168862 C472.205522,68.8570781 471.144708,42.1099373 471.144708,42.1099373 C471.144708,42.1099373 468.015073,40.2962846 462.967092,40.2962849 C457.919112,40.2962853 455.304462,41.6823664 455.304462,41.6823664 C455.304462,41.6823664 456.194237,50.6021566 454.36702,60.9409116 C452.539802,71.2796667 446.805797,73.4419604 441.747536,73.4419571 C436.689275,73.4419538 432.202077,68.890911 434.861123,61.7462485 C437.520168,54.601586 443.385956,53.7995375 443.385957,47.7411871 C443.385957,41.6828366 442.380624,29.0923158 441.059175,24.693236 C440.060514,21.9854436 437.983273,21.8790055 435.070481,18.0766938 C430.021566,12.4562508 430.044932,5.56155236 433.089049,2.23965553 Z" id="Path-2" sketch:type="MSShapeGroup"></path>
            <path d="M533.796381,37.8073999 C534.253542,29.2371876 534.444778,20.546814 532.176889,19.0379651 C530.186947,17.0295987 528.284644,15.7600381 529.743123,9.91987823 C530.471116,7.00478791 532.436528,5.91824248 533.853296,5.66678388 C535.825716,5.08785934 538.349044,4.69907277 540.076202,5.30587238 C543.524623,6.51740275 561.155719,12.9713477 564.910647,12.9713496 C568.665574,12.9713512 569.365287,10.4921471 573.015234,10.2100228 C574.489691,10.0058656 577.74363,9.63253294 580.358243,11.8876715 C582.52891,13.7599001 583.915547,16.9435296 582.290072,21.8733615 C578.706676,32.7412794 567.790579,27.7555115 562.482504,26.1297583 C557.174429,24.5040051 553.689452,22.6687821 553.689452,22.6687821 C553.689452,22.6687821 551.263184,22.5206435 550.314611,25.8141377 C549.366037,29.1076318 548.168134,33.0182126 549.241373,35.3837179 C550.314611,37.7492232 557.248946,37.2109192 558.577137,39.9642274 C559.905328,42.7175356 560.642533,49.4262402 556.731074,50.0971127 C552.819614,50.7679851 550.271697,49.7997445 548.19063,51.522831 C546.98394,52.5219495 546.718827,56.0893497 546.603375,59.1105761 C546.519717,61.2997783 546.286709,63.2022089 546.928053,63.6329452 C547.557605,64.4427095 550.513067,65.2341334 553.523385,65.6938515 C556.386719,66.1311229 559.299682,66.2682901 560.307909,65.8356848 C562.864465,64.9562873 573.345171,68.4630245 572.480489,75.7039016 C571.615807,82.9447787 567.256304,83.8100195 562.714493,82.4781869 C558.172681,81.1463543 549.321045,77.8028497 549.321045,77.8028497 C549.321045,77.8028497 545.95136,76.339859 542.456072,76.3398607 C538.960784,76.3398623 537.156432,77.5391231 533.708479,77.5391248 C530.260527,77.5391264 524.963699,76.8309817 526.177067,68.0601262 C527.390435,59.2892707 530.645299,60.2601902 532.176889,55.1786522 C532.893854,52.7998926 533.394026,45.350185 533.796381,37.8073999 Z" id="Path-3" sketch:type="MSShapeGroup"></path>
            <path d="M45.2680264,312.431914 C43.0147665,309.077752 43.1963979,305.913449 48.1051346,303.493465 C53.0138714,301.073482 56.8985281,298.5444 59.1470938,302.794957 C61.3956595,307.045514 70.5452767,325.719629 48.9982722,333.776321 C27.4512679,341.833014 21.3593466,332.72171 16.9833018,328.822061 C14.7835942,326.861823 7.89999759,318.690565 4.08185171,310.010041 C0.304270625,301.421743 -0.423217105,292.332455 0.196726593,288.727503 C1.44327072,281.478888 3.70169313,276.246924 12.8475538,269.897065 C21.9934146,263.547205 28.6992193,264.380786 34.2223125,266.779517 C39.7454058,269.178248 48.2942751,282.767278 38.9527035,288.099366 C35.6183827,290.002567 32.3204749,290.312307 30.3752033,290.199141 C26.8705211,289.995254 25.9882978,287.676785 24.6437285,285.565089 C22.5528568,282.281299 24.93753,279.631312 23.2108598,279.327161 C22.0900965,279.174613 20.879691,277.706282 16.8636223,282.335138 C14.606177,284.937034 12.4670883,289.46815 13.5069644,295.466997 C14.3170619,300.140295 17.7176088,306.118759 20.2015071,310.078995 C25.8738459,319.122761 28.8029415,321.147918 32.5115997,323.442273 C36.2202579,325.736627 42.0169662,324.519082 45.0610513,322.797605 C48.1051363,321.076128 49.200083,316.948841 48.415832,315.610386 C47.6315809,314.271931 47.5212863,315.786076 45.2680264,312.431914 Z" id="Path-4" sketch:type="MSShapeGroup"></path>
            <path d="M83.3009316,231.635054 C99.6988893,225.19449 117.037456,225.382327 129.1532,248.376 C141.268943,271.369673 137.223893,288.408612 117.664215,299.13457 C98.1045383,309.860529 83.7435434,303.119143 70.9395035,276.252939 C60.8138593,251.643594 66.9029735,238.075616 83.3009316,231.635054 Z M94.3537462,248.64908 C99.5612714,246.228369 97.0762983,241.69869 98.3213621,241.07755 C99.566426,240.456409 111.512384,243.38887 116.428442,256.354417 C121.3445,269.319964 123.474276,279.946961 120.901207,281.685029 C118.328137,283.423097 115.156668,276.368947 108.667997,279.541319 C102.179326,282.713692 105.297843,288.979557 101.809603,290.727484 C98.3213621,292.475412 90.8266122,285.802022 84.2025162,271.078219 C77.5784203,256.354417 80.2311514,248.766454 82.4340288,247.300224 C84.2985787,245.969678 89.1462208,251.069791 94.3537462,248.64908 Z" id="Path-5" sketch:type="MSShapeGroup"></path>
            <path d="M142.989597,214.473284 C140.030729,208.846709 144.303971,206.382211 147.967689,204.006785 C149.832069,202.797987 161.312263,200.862153 171.952316,206.610987 C182.22117,212.159261 191.672951,225.393925 192.821233,224.595682 C195.159306,222.970342 193.570694,212.788406 198.570387,200.383406 C203.570079,187.978406 209.316887,186.384475 214.711971,184.597397 C220.107056,182.810319 228.969574,181.289991 231.688012,187.223164 C232.834831,189.726173 233.117265,193.190522 231.749997,194.766675 C229.876273,196.926659 225.7927,196.902272 224.709479,198.444436 C222.835826,201.111926 224.198569,207.291691 226.244089,214.492037 C228.28961,221.692383 230.131331,234.435393 233.508131,236.47281 C236.884931,238.510227 243.855951,235.931811 245.344072,242.794621 C248.912464,256.780894 236.801662,255.647655 235.870623,255.71624 C231.733369,256.021014 228.149649,253.133237 223.932313,249.254728 C218.765915,244.503406 215.353425,231.491304 214.71197,228.567381 C214.447308,227.360977 213.446258,223.425233 212.868842,221.837244 C212.046794,219.576475 211.569142,219.819549 210.891411,220.153303 C210.399131,220.395731 210.002645,221.670158 209.780838,225.728311 C209.482787,231.181405 210.357961,238.369485 210.35796,242.336131 C210.357959,249.254726 210.697003,254.599554 210.697002,258.002126 C210.697001,261.404698 207.742831,265.035581 203.568202,265.785665 C199.393572,266.535748 192.353055,254.079181 192.353055,254.079181 C192.353055,254.079181 184.316839,242.053433 183.074015,240.52702 C181.831191,239.000607 180.986702,237.869373 179.154842,237.869375 C177.322982,237.869377 178.523248,241.200223 179.394801,242.946044 C180.266353,244.691865 183.647851,254.064181 182.437255,261.681293 C181.226659,269.298405 172.19791,281.879679 162.355366,272.882407 C157.760897,268.682509 160.480305,264.07172 160.480305,264.07172 C160.480305,264.07172 165.354161,259.518995 165.663137,255.716242 C166.242608,248.584338 157.496079,221.341252 154.490253,220.466464 C151.484426,219.591676 145.948465,220.09986 142.989597,214.473284 Z" id="Path-7" sketch:type="MSShapeGroup"></path>
            <path d="M271.033926,176.040037 C271.919641,174.277326 273.417388,173.445274 278.250007,171.943924 C286.664401,169.329823 290.029129,172.721381 290.736138,175.141705 C291.443148,177.562029 292.639589,181.836869 291.687864,184.633457 C290.736138,187.430045 289.58602,186.964889 289.58602,188.79965 C289.58602,190.634411 290.792755,210.955536 293.787836,217.687857 C294.977349,220.361637 296.279433,224.319143 297.474953,226.222956 C299.289637,229.112761 299.823254,231.191442 299.902461,233.57235 C299.985748,236.075922 301.072699,241.893446 293.335369,242.803068 C285.598038,243.71269 279.148858,241.507304 278.326744,235.43392 C277.504629,229.360536 278.731016,228.566144 278.731016,224.008637 C278.731016,221.538157 278.247619,218.068485 277.529896,211.850578 C276.923574,206.597778 277.30306,198.508166 276.438266,195.312795 C274.549788,188.334961 270.687674,190.806553 270.146772,181.811941 C269.69285,179.266709 270.377463,177.3465 271.033926,176.040037 Z" id="Path-8" sketch:type="MSShapeGroup"></path>
            <path d="M329.62161,203.551131 C325.446508,186.385181 329.271259,168.859124 341.818638,162.746237 C354.366018,156.63335 379.442461,157.519953 383.158255,168.996756 C386.874048,180.47356 385.720613,189.110504 377.620257,191.452151 C369.5199,193.793797 366.587468,188.765479 364.812227,183.150334 C363.036986,177.535188 365.29126,176.073544 366.654156,174.407337 C367.316638,173.59742 369.106147,171.525999 366.3874,170.817094 C364.847572,170.415589 360.663199,169.922541 357.115292,170.169936 C356.760785,170.194656 351.751667,170.022061 349.254922,173.636215 C345.213394,179.486515 343.392586,191.462755 345.966971,201.90142 C347.865577,209.599925 350.071166,215.866049 353.941463,219.532589 C358.561021,223.908944 364.930361,224.776911 367.449257,222.633574 C372.078501,218.694535 367.970089,216.227511 370.762569,212.015563 C373.55505,207.803614 379.530754,206.597912 382.020786,208.227355 C384.510818,209.856797 389.636474,216.194517 385.345839,224.942227 C381.055205,233.689936 367.668109,240.264272 353.430494,235.27743 C339.192879,230.290589 333.796712,220.717081 329.62161,203.551131 Z" id="Path-9" sketch:type="MSShapeGroup"></path>
            <path d="M483.488426,236.30652 C477.841494,237.727252 472.437264,236.223982 470.013819,232.694679 C465.432037,226.022153 477.64981,220.414492 481.398455,213.354488 C485.147101,206.294483 484.471407,181.917999 481.241949,177.768311 C478.012491,173.618624 474.450341,171.116427 476.59644,163.713038 C478.74254,156.30965 494.25256,162.264447 494.25256,162.264447 C494.25256,162.264447 502.363693,166.262146 507.092608,172.163465 C511.821523,178.064785 519.717109,196.131829 519.717109,196.131829 C519.717109,196.131829 521.882889,198.206205 521.882889,194.807081 C521.882888,191.407958 520.182879,180.439386 527.744833,172.076212 C535.306787,163.713038 545.181657,164.316305 545.181657,164.316305 C545.181657,164.316305 557.669333,163.565741 559.928828,178.486039 C560.583847,182.082633 556.584622,186.324681 553.396814,186.639993 C548.831054,187.091601 544.368201,182.553165 544.368201,182.553165 C544.368201,182.553165 542.076842,180.758377 539.460287,185.805927 C536.843732,190.853477 534.427731,218.442382 534.427731,218.442382 C534.427731,218.442382 536.004974,232.695615 531.874903,236.021559 C527.744832,239.347504 523.249271,238.033072 519.697428,235.363876 C516.145586,232.694681 508.720457,212.830968 508.720457,212.830968 C508.720457,212.830968 503.43112,194.934677 501.358118,190.370302 C499.285116,185.805928 497.961846,189.162832 497.961845,191.984956 C497.961844,194.80708 500.21197,219.838431 495.879473,227.601155 C493.838566,231.257936 488.517624,235.041206 483.488426,236.30652 Z" id="Path-10" sketch:type="MSShapeGroup"></path>
            <path d="M578.199459,219.543931 C578.199459,219.543931 583.916155,213.027432 586.842436,198.280952 C589.768716,183.534473 587.930303,177.230036 593.074486,169.129182 C598.218669,161.028326 610.386029,163.613088 615.546318,169.371406 C618.688445,172.877676 619.812014,182.523854 622.37668,191.827719 C624.895296,200.964527 627.382173,206.479486 628.881838,208.699905 C629.908672,210.220244 630.660881,212.111086 631.677875,213.580212 C632.783439,215.177285 634.16595,216.331092 635.614252,217.409149 C638.394828,219.478897 642.472694,217.530735 646.524323,220.201802 C650.575953,222.872869 648.531341,226.8258 648.120988,228.412931 C647.037805,232.60238 644.788045,234.36204 636.301549,234.362041 C631.954079,234.362042 623.665506,231.74281 619.333711,228.390782 C615.001916,225.038754 615.849441,221.069852 615.849441,221.069852 C615.849441,221.069852 613.631417,220.199063 612.412021,220.115563 C607.313786,219.766452 596.896548,219.772018 596.896548,219.772018 C596.896548,219.772018 594.740423,221.75354 591.823578,225.887481 C589.879222,228.64315 589.141335,232.891586 585.351185,235.099554 C575.875207,240.619824 565.828122,237.204172 563.871646,233.570335 C561.91517,229.936497 563.427035,223.991153 566.666277,221.74987 C569.905519,219.508586 578.199459,219.543931 578.199459,219.543931 Z M601,204.45263 C601,204.45263 602.342011,206.000001 606.778333,206 C611.214655,205.999999 611.84352,205.177757 611.84352,205.177757 C611.84352,205.177757 612.875266,193.676536 609.640177,187.509254 C606.405089,181.341972 604.057265,182.228958 604.057265,185.826847 C604.057265,189.424737 601,204.45263 601,204.45263 Z" id="Path-11" sketch:type="MSShapeGroup"></path>
            <path d="M655.682017,178.612278 C650.97987,176.515789 652.122127,168.057276 652.122127,168.057276 C652.122127,168.057276 651.871833,164.103538 656.60726,160.445689 C661.342687,156.787839 669.514731,157.329049 669.514731,157.329049 C669.514731,157.329049 691.178732,158.40632 698.460687,155.867407 C705.742643,153.328494 705.501705,153.20298 707.619375,151.51619 C709.737045,149.829399 708.627113,147.733337 710.482287,146.291827 C712.337461,144.850316 716.208577,145.004814 716.208577,145.004814 C716.208577,145.004814 719.222413,145.704735 720.592936,147.202895 C721.963459,148.701054 722.94401,156.737276 722.94401,156.737276 C722.94401,156.737276 723.735669,160.807121 719.365371,164.432198 C714.995075,168.057275 701.254228,168.58959 701.254228,168.58959 C701.254228,168.58959 699.590758,168.629854 698.476155,170.066682 C697.361552,171.50351 697.590751,171.846682 698.070717,174.225011 C698.550682,176.60334 700.944409,198.747074 701.861214,204.251405 C702.778019,209.755737 707.619387,210.702858 707.619376,216.649612 C707.619366,222.596366 705.896379,225.999995 697.118757,226 C688.341134,226.000005 686.507988,222.785514 686.507989,218.008723 C686.50799,213.231933 687.252787,207.003804 687.252777,202.175518 C687.252767,197.347232 682.700618,169.377529 682.700618,169.377529 C682.700618,169.377529 675.418664,167.979091 671.345062,169.700569 C667.27146,171.422047 670.876347,172.222626 666.167638,176.74941 C661.458928,181.276194 657.409231,179.974666 655.682017,178.612278 Z" id="Path-13" sketch:type="MSShapeGroup"></path>
            <path d="" id="Path-14" sketch:type="MSShapeGroup"></path>
            <path d="M747.98618,153.413055 C745.185363,144.188355 748.829016,143.926775 752.928714,141.795892 C757.028413,139.665009 761.379218,139.045056 764.096647,140.420474 C766.814075,141.795892 770.416263,144.324339 770.416269,148.553998 C770.416275,152.783658 769.20125,153.749709 769.201247,158.534635 C769.201244,163.31956 774.35343,178.095511 774.35343,178.095511 C774.35343,178.095511 779.798178,200.249992 795.038957,194.24688 C810.279736,188.243768 797.93918,165.240803 797.93918,165.240803 C797.93918,165.240803 791.743462,149.976161 789.572063,147.753678 C788.85718,147.021976 787.664107,145.889702 787.032397,144.699924 C785.745339,142.27585 785.675418,141.109835 785.675418,139.222117 C785.675418,137.334399 784.105173,134.076928 789.572065,131.558397 C792.693152,130.12055 795.938816,129.788049 798.751597,130.116131 C800.865677,130.362718 802.945126,130.561727 803.378748,133.279441 C804.389302,139.61307 809.075174,157.96066 812.005451,166.150194 C814.461882,173.015421 818.000002,180.037108 818,184.17181 C817.999995,193.238803 815.957219,197.793792 799.627208,205.391877 C783.297197,212.989962 775.208515,207.12284 769.276155,201.21935 C763.343795,195.315859 763.302336,182.339808 761.715599,176.273424 C760.128862,170.207041 757.849106,163.727985 753.551537,161.258086 C749.253968,158.788187 748.837844,156.218075 747.98618,153.413055 Z" id="Path-15" sketch:type="MSShapeGroup"></path>
            <path d="M848.158697,141.446791 C846.127263,137.420993 844.144432,133.2005 842.647843,132.148529 C837.460408,128.502216 832,126.687321 832,123.811063 C832,120.934805 834.487875,122.740257 836.778211,121.448963 C839.068546,120.157668 861.436796,103.370841 861.436796,103.370841 C861.436796,103.370841 870.583217,97.8013491 877.245202,98.0054771 C883.907186,98.2096051 886.4301,100.053557 890.112662,104.249487 C900.492246,116.076045 893.630198,127.253887 892.178112,128.886063 C890.726027,130.518239 888.662461,133.03662 890.920738,135.135267 C891.863155,136.011068 893.195412,139.380577 896.026611,141.446791 C899.979701,144.331763 905.686536,145.949561 907.005417,145.949562 C909.268879,145.949565 912.712868,141.992583 916.485463,141.446791 C920.258057,140.901 924.058938,141.007235 926.023969,145.07847 C927.988999,149.149705 927.276157,154.968795 921.203799,157.193503 C915.13144,159.41821 907.005417,161.060778 892.801378,155.309676 C885.689336,152.430067 881.106362,142.654046 879.677445,142.654047 C877.149768,142.654048 874.940665,143.869253 872.815868,144.882059 C870.44046,146.014323 868.469983,146.209653 868.469983,147.18184 C868.469983,148.160973 872.054148,154.527953 873.3538,161.834611 C874.498867,168.272187 875.256598,174.511014 870.027675,177.880653 C862.391387,182.801653 858.716021,181.201666 857.017835,177.880655 C854.653953,174.139912 858.88716,172.124832 858.590142,170.03657 C857.992046,165.831494 853.168568,151.375111 848.158697,141.446791 Z M855.581357,124.152026 L862.430359,136 L877.616447,126.210293 C877.616447,126.210293 882.620898,121.786008 878.126988,115.557563 C873.633077,109.329119 867.708503,113.173193 867.708503,113.173193 L856.546456,121.539901 C856.546456,121.539901 855,122.440098 855,123.109717 C855,123.779336 855.581357,124.152026 855.581357,124.152026 Z" id="Path-16" sketch:type="MSShapeGroup"></path>
            <path d="M934.620401,88.5902784 C930.481841,86.2628132 927.184066,88.1499091 923.635654,82.1686951 C920.087243,76.1874811 922.820263,76.4382471 926.990328,72.0985382 C931.160394,67.7588295 936.851207,66.555811 942.113634,67.1363843 C947.376061,67.7169567 964.247239,77.0089396 972.854465,82.7996089 C981.461692,88.5902783 987.240438,95.2903863 991.99642,95.290386 C996.752402,95.2903859 1004.77371,91.9081045 1007.52789,92.9535112 C1010.28207,93.9989179 1010.79416,94.4844537 1012.46115,98.6519666 C1014.12815,102.819479 1011.66175,105.036382 1008.69361,105.86772 C1005.72547,106.699059 996.997865,108.50288 991.819141,108.50288 C986.640416,108.50288 983.115516,104.059195 979.028683,104.059195 C975.32944,104.059195 976.179985,103.67246 973.040679,104.728218 C969.901374,105.783975 961.065613,112.225318 961.065613,112.225318 C961.065613,112.225318 963.532008,123.314532 963.532008,127.989226 C963.532009,132.66392 959.978894,139.31462 954.627592,140.945778 C949.276291,142.576936 943.494721,143.585646 942.113634,133.944096 C941.107076,126.917178 945.726131,126.293035 946.243056,124.987543 C946.759981,123.682051 946.739831,123.097245 946.73983,122.26066 C946.739827,119.175721 938.75896,90.9177437 934.620401,88.5902784 Z M957.468356,98.9999997 C957.468356,98.9999997 960.319398,99.0049962 962.132557,97.6723219 C963.945716,96.3396478 964.601539,95.0923665 963.367048,94.0426698 C962.132557,92.9929731 955.397238,87.4574243 952.281728,85.9276198 C949.166219,84.3978152 949.853648,84.7598266 950.784164,87.0163791 C951.71468,89.2729317 953.557586,94.0376732 954.921289,95.8549977 C956.284992,97.6723221 957.468356,98.9999997 957.468356,98.9999997 Z" id="Path-18" sketch:type="MSShapeGroup"></path>
            <path d="M994.357906,40.6301513 C989.694004,35.701726 992.730217,30.50892 996.721619,28.0232993 C1000.71302,25.5376784 1008.23452,23.4685119 1011.0586,26.5362317 C1013.88268,29.603952 1013.88268,34.6491261 1013.88268,34.6491261 L1032.39858,61.3770375 C1032.39858,61.3770375 1040.41046,70.1225654 1049.22585,66.5551024 C1058.04125,62.9876385 1052.72923,58.360555 1052.72923,58.360555 C1052.72923,58.360555 1045.31298,52.4766248 1052.81502,47.4223257 C1060.31707,42.3680263 1065.09489,45.4411276 1068.71828,51.2810743 C1072.34167,57.121021 1073.94287,68.4689192 1055.33602,77.1468327 C1045.97915,81.8677343 1043.27532,80.3930667 1043.27532,80.3930667 C1043.27532,80.3930667 1044.74572,86.0858524 1041.93735,88.2881417 C1040.50128,89.4142879 1039.67491,89.9935909 1037.7039,90.5738044 C1035.82041,91.1282552 1033.59158,91.3287368 1031.69374,89.9979419 C1026.05566,86.0444384 1028.40038,81.6506168 1026.61072,79.0346786 C1026.20137,78.3010927 1024.10677,74.7854128 1023.47184,73.848425 C1017.01849,64.3249342 1021.21523,69.8971569 1014.43676,60.8472755 C1008.79835,53.3194668 1002.41423,46.5946728 1001.46264,45.4619513 C999.367048,42.9674797 996.484638,43.6866415 994.357906,40.6301513 Z" id="Path-20" sketch:type="MSShapeGroup"></path>
            <path d="M524.571045,420.377402 C526.145387,418.807785 528.929469,410.912478 528.929468,401.606527 C528.929468,392.300575 528.171279,384.911641 526.768487,383.378494 C525.365695,381.845348 519.563345,378.005702 521.173681,371.157273 C522.784016,364.308845 529.173473,365.898101 533.962878,366.932354 C538.752282,367.966608 543.448199,370.377374 543.448199,377.896292 C543.448198,385.41521 543.826826,397.70937 543.826826,397.70937 L559.193027,398.000196 C559.193027,398.000196 559.77499,387.373372 560.896851,379.558954 C562.018712,371.744535 567.145143,367.088519 574.864935,367.08852 C582.584728,367.088522 584.999995,371.074514 585,375.568752 C585.000005,380.062989 580.394812,379.806987 577.309183,388.384717 C576.118613,392.416999 572.998433,414.304154 574.516224,421.228839 C576.034016,428.153525 582.31408,427.513382 581.451185,436.352237 C580.58829,445.191092 572.125727,448.209691 564.276453,440.86845 C556.427178,433.527209 559.07196,416.166977 559.07196,416.166977 C559.07196,416.166977 559.819865,413.922663 559.07196,411.807398 C558.324055,409.692134 545.342739,409.311534 543.705759,410.980743 C542.068779,412.649952 541.887879,429.734785 534.87953,436.947448 C527.871181,444.160111 518.439061,444.546175 515.101617,438.340792 C510.230877,429.284521 522.996702,421.947019 524.571045,420.377402 Z" id="Path-21" sketch:type="MSShapeGroup"></path>
            <path d="M618.025448,388.654778 C618.025448,388.654778 618.579145,385.084089 616.279578,380.020858 C613.980012,374.957627 613.63419,364.000008 625.248894,364 C636.863598,363.999991 638.466254,372.862175 638.466254,372.862175 C638.466254,372.862175 638.677003,378.679862 636.21219,380.67101 C633.630996,382.756174 631.870538,393.537547 632.64573,402.623216 C633.55784,413.31364 635.065041,423.937431 635.065041,423.937431 C635.065041,423.937431 638.025045,428.072197 638.803322,432.6691 C639.804631,438.583342 637.094465,443.790442 628.09162,444.885409 C620.126633,445.854148 616.334911,440.485145 615.627905,436.156824 C614.798349,431.078247 617.839605,425.674131 617.839605,425.674131 L618.025448,388.654778 Z" id="Path-22" sketch:type="MSShapeGroup"></path>
            <path d="M708.582113,379.50342 C715.369161,374.452119 712.449955,367.470056 712.449955,367.470056 C712.449955,367.470056 711.555702,360.694911 702.847737,358.214232 C694.139772,355.733554 685.311218,357.235103 678.804599,361.073327 C675.56169,362.986303 668.06837,370.673548 668.068369,377.396964 C668.068369,384.12038 671.815621,395.768803 688.474441,401.070828 C705.133261,406.372851 704.571459,413.343731 704.571457,414.912853 C704.571455,416.481974 703.935405,420.630109 698.769455,420.630111 C693.603506,420.630114 690.646466,420.633375 689.269384,419.317305 C687.892302,418.001234 692.00747,403.619548 678.069713,405.245525 C664.131956,406.871503 668.724753,420.974508 668.724753,420.974508 C668.724753,420.974508 674.563638,440.934576 696.415363,434.84403 C718.267089,428.753485 725.755447,420.97451 723.663341,407.44006 C722.060684,397.57933 715.209321,388.253601 701.056395,387.761473 C686.903469,387.269346 684.34414,379.913992 684.344139,377.396964 C684.344139,374.879935 684.953234,370.968544 688.595503,370.139943 C692.237772,369.311341 694.391828,374.802108 694.391828,374.802108 C694.391828,374.802108 696.96156,379.981104 702.253776,379.981101 C702.616963,380.042151 704.658468,380.961628 708.582113,379.50342 Z" id="Path-23" sketch:type="MSShapeGroup"></path>
            <path d="M759.899142,348.108501 C776.623058,347.406845 779.499525,345.685448 781.870172,342.119164 C784.240819,338.55288 785.797656,332.809123 793.534488,334.218049 C801.271321,335.626974 802.740495,344.983325 799.11444,349.334996 C797.456065,351.325231 793.562738,355.682302 789.615443,357.331068 C784.931937,359.287347 780.156469,358.456917 778.722747,359.799962 C776.080673,362.274937 777.581255,364.524447 778.201458,367.62296 C778.821661,370.721474 780.007378,377.56954 781.390374,382.54283 C783.283093,389.349099 788.028605,402.961636 788.028605,402.961636 C788.028605,402.961636 795.770125,418.114135 783.865791,421.457291 C771.961457,424.800446 769.122493,411.732339 769.122493,408.587047 C769.122493,405.441754 768.742777,401.221527 767.455492,395.715399 C766.168208,390.209272 760.834368,364.456152 758.671862,362.969109 C756.509355,361.482066 750.539843,361.306182 749.044418,363.54166 C747.548993,365.777138 746.860815,374.509479 737.253529,373.511726 C727.646243,372.513973 729.0751,365.053496 729.0751,360.349125 C729.0751,355.644755 735.581372,351.444642 741.671362,350.067057 C747.761352,348.689472 743.175225,348.810156 759.899142,348.108501 Z" id="Path-24" sketch:type="MSShapeGroup"></path>
            <path d="M843.889911,323.715592 C868.84692,316.857039 881.484822,331.552183 888.109104,350.219933 C894.733387,368.887683 890.780354,391.336776 867.786166,398.973131 C844.791978,406.609485 827.387766,391.664992 820.711532,370.942462 C814.035297,350.219933 818.932903,330.574147 843.889911,323.715592 Z M850.913018,346.111804 C857.08676,343.388665 855.321949,338.328275 856.630894,337.130019 C857.93984,335.931763 868.459094,343.17729 871.172355,352.20527 C873.885616,361.233249 875.893621,375.279159 874.595165,376.296369 C873.29671,377.313578 868.505824,373.740745 860.16481,376.727517 C851.823796,379.714289 852.543836,385.999998 850.514373,386 C848.484911,386.000002 842.799459,377.127402 837.976625,365.854093 C833.153791,354.580784 835.108865,344.690975 837.440649,343.156293 C839.772433,341.621611 844.739275,348.834942 850.913018,346.111804 Z" id="Path-25" sketch:type="MSShapeGroup"></path>
            <path d="M895.826588,317.233236 C892.64443,309.584153 899.67612,306.618128 899.67612,306.618128 C899.67612,306.618128 901.606917,305.766552 904.27678,305.260954 C906.946643,304.755355 907.132139,305.201403 909.71592,304.716866 C912.03161,304.282604 914.283474,302.918761 915.514741,302.22184 C921.624196,298.763764 942.55442,285.881856 952.313481,301.71618 C962.072543,317.550503 950.781796,326.703931 950.781796,326.703931 C950.781796,326.703931 948.695172,328.823579 951.197066,330.615179 C953.698959,332.406779 966.936189,343.422574 969.79683,339.979493 C972.657471,336.536413 976.104344,336.31803 980.869898,340.771022 C985.635453,345.224014 984.721764,349.843373 979.738535,355.093052 C974.755305,360.342732 962.437828,359.456537 950.695379,350.113779 C938.95293,340.771021 938.781495,336.781509 937.04241,336.781511 C936.202508,336.781512 933.745617,337.80444 931.429511,338.553138 C928.949933,339.35468 926.631716,339.912047 926.631716,340.771021 C926.631718,342.43234 937.423111,354.843735 936.302026,364.759638 C935.18094,374.675541 930.867091,379.878349 922.223978,378.878279 C913.580865,377.87821 915.148987,367.102823 916.021098,362.983033 C916.89321,358.863243 914.620673,344.484976 910.722095,336.56875 C906.823516,328.652524 903.298631,321.168384 901.928103,321.168385 C900.997715,321.168385 897.582023,321.452848 895.826588,317.233236 Z M917.462964,319.594053 C916.434289,317.218422 917.183473,316.873457 919.080382,315.776058 C920.977292,314.678659 934.36727,305.022021 939.163255,313.368459 C943.959241,321.714897 926.671276,328.576029 924.438605,329.753585 C922.205935,330.931142 920.691291,327.505825 920.691291,327.505825 C920.691291,327.505825 918.491638,321.969684 917.462964,319.594053 Z" id="Path-27" sketch:type="MSShapeGroup"></path>
            <path d="M995.500001,290.188831 C995.500001,290.188831 998.2468,282.445995 999.772247,275.811388 C1000.7632,271.501437 999.947049,268.866225 1001.9995,265.060526 C1006.54033,256.640839 1013.45083,256.477421 1015.43663,257.349718 C1020.32791,259.498303 1023.30844,266.720648 1018.29169,273.800096 C1013.27493,280.879545 1010.71703,287.791348 1010.71703,294.159581 C1010.71703,300.527814 1017.84076,312.463413 1020.89676,315.764507 C1023.95275,319.065602 1027.67946,319.32478 1029.72418,322.926612 C1031.7689,326.528443 1032.11936,331.619952 1024.89186,336.394375 C1017.66436,341.168798 1014.13669,338.631688 1010.41469,334.780485 C1006.69269,330.929282 1006.60354,324.868325 1005.14606,320.580494 C1003.68858,316.292662 996.566262,306.516396 988.293998,301.346902 C980.021734,296.177409 974.146058,294.266989 969.679281,295.056187 C965.212504,295.845385 960.678748,295.05105 960.05472,289.161005 C959.430692,283.27096 964.216323,279.539307 970.710838,279.539306 C977.205353,279.539304 980.320305,281.169073 983.680057,282.517251 C987.039809,283.865429 995.500001,290.188831 995.500001,290.188831 Z" id="Path-29" sketch:type="MSShapeGroup"></path>
            <path d="M1042.0807,312.989476 C1041.4667,309.131002 1044.46132,305.036723 1047.50207,303.382386 C1054.26918,299.700697 1059.60709,304.004428 1060.66642,308.896803 C1061.72575,313.789178 1060.58771,318.417615 1052.45636,320.768477 C1047.97877,322.062999 1042.83314,317.71795 1042.0807,312.989476 Z" id="Path-30" sketch:type="MSShapeGroup"></path>
        </g>
    </g>
</svg>